Cover :: 
http://i.minus.com/inMvpBFQWTvSp.png


Screen ::
 
http://i.minus.com/iiiZGwVfg6FBf.png
 
http://i.minus.com/iEEGuAC1X0a0R.png
 
http://i.minus.com/ijyHA6VdddsPm.png
 
http://i.minus.com/ib0n2lJj6kbGxt.png
 
http://i.minus.com/iK51nkxbDUrSv.png
 
http://i.minus.com/ibeOojaSQkVq0P.png
 
http://i.minus.com/idT61lgOPkPzX.png
 
http://i.minus.com/ib17Wn3fYUUb0Z.png
 
http://i.minus.com/iodZ8kXMUOeqc.png


General ::
Format                           : AVI
Format/Info                      : Audio Video Interleave
File size                        : 39.9 MiB
Duration                         : 2mn 34s
Overall bit rate                 : 2 167 Kbps


Video Info ::
ID                               : 0
Format                           : AVC
Format/Info                      : Advanced Video Codec
Format profile                   : High@L5.1
Format settings, CABAC           : Yes
Format settings, ReFrames        : 2 frames
Codec ID                         : H264
Duration                         : 10s 0ms
Bit rate                         : 1 835 Kbps
Width                            : 1 280 pixels
Height                           : 544 pixels
Display aspect ratio             : 2.35:1
Frame rate                       : 30.000 fps
Color space                      : YUV
Chroma subsampling               : 4:2:0
Bit depth                        : 8 bits
Scan type                        : Progressive
Bits/(Pixel*Frame)               : 0.088
Stream size                      : 33.8 MiB (85%)


Audio Info ::
ID                               : 1
Format                           : MPEG Audio
Format version                   : Version 1
Format profile                   : Layer 3
Codec ID                         : 55
Codec ID/Hint                    : MP3
Duration                         : 2mn 34s
Bit rate mode                    : Constant
Bit rate                         : 320 Kbps
Channel(s)                       : 2 channels
Sampling rate                    : 44.1 KHz
Compression mode                 : Lossy
Stream size                      : 5.89 MiB (15%)